<svg width="68" height="67" viewBox="0 0 68 67" fill="none" xmlns="http://www.w3.org/2000/svg">
<g clip-path="url(#clip0_2_1098)">
<rect x="0.128906" width="67" height="67" rx="14" fill="url(#paint0_radial_2_1098)"/>
<g filter="url(#filter0_f_2_1098)">
<path d="M55.3945 49.4453V48.4579C55.7768 48.357 56.0661 48.211 56.2625 48.0199C56.4642 47.8341 56.6235 47.5952 56.7403 47.3032C56.8624 47.0166 56.9235 46.6688 56.9235 46.2601C56.4297 46.2601 56.0661 46.122 55.8325 45.846C55.5989 45.5646 55.4821 45.2647 55.4821 44.9461C55.4821 44.5798 55.6122 44.2719 55.8723 44.0224C56.1324 43.7676 56.435 43.6402 56.7801 43.6402C57.226 43.6402 57.6109 43.834 57.9348 44.2215C58.2586 44.6037 58.4205 45.1293 58.4205 45.7982C58.4205 46.3822 58.2931 46.9316 58.0383 47.4466C57.7835 47.9668 57.4357 48.4101 56.9951 48.7764C56.5598 49.1427 56.0263 49.3657 55.3945 49.4453ZM56.7801 39.4436C56.4244 39.4436 56.1192 39.3162 55.8644 39.0614C55.6095 38.8066 55.4821 38.5013 55.4821 38.1456C55.4821 37.7847 55.6095 37.4794 55.8644 37.2299C56.1245 36.9751 56.4297 36.8477 56.7801 36.8477C57.1305 36.8477 57.4331 36.9751 57.6879 37.2299C57.948 37.4794 58.0781 37.7847 58.0781 38.1456C58.0781 38.5013 57.9507 38.8066 57.6959 39.0614C57.4411 39.3162 57.1358 39.4436 56.7801 39.4436Z" fill="#0097FF"/>
<g filter="url(#filter1_d_2_1098)">
<path d="M45.7988 46.6992V36.8477H48.1348C49.2096 36.8477 50.0073 37.036 50.5278 37.4126C51.0526 37.785 51.4461 38.3499 51.7085 39.1074C51.9709 39.8649 52.102 40.762 52.102 41.7988C52.102 42.7806 51.9624 43.6439 51.6831 44.3887C51.408 45.1292 51.0166 45.7005 50.5088 46.1025C50.001 46.5003 49.2096 46.6992 48.1348 46.6992H45.7988ZM47.0811 45.6138H47.938C48.8055 45.6138 49.4233 45.4593 49.7915 45.1504C50.1639 44.8415 50.4284 44.4141 50.585 43.8682C50.7458 43.318 50.8262 42.5605 50.8262 41.5957C50.8262 40.652 50.7331 39.9263 50.5469 39.4185C50.3607 38.9106 50.0941 38.5213 49.7471 38.2505C49.4001 37.9754 48.8309 37.8379 48.0395 37.8379H47.0811V45.6138Z" fill="url(#paint1_linear_2_1098)"/>
</g>
<g filter="url(#filter2_d_2_1098)">
<path d="M48.7123 29.9966C47.5951 29.9966 46.7403 29.5269 46.1478 28.5874C45.5596 27.6437 45.2655 26.3721 45.2655 24.7725C45.2655 23.1771 45.5596 21.9097 46.1478 20.9702C46.7403 20.0265 47.5951 19.5547 48.7123 19.5547C49.8337 19.5547 50.6885 20.0265 51.2767 20.9702C51.8649 21.9097 52.1591 23.1771 52.1591 24.7725C52.1591 26.3721 51.8649 27.6437 51.2767 28.5874C50.6885 29.5269 49.8337 29.9966 48.7123 29.9966ZM48.7123 29.0063C49.3301 29.0063 49.8443 28.6572 50.2548 27.959C50.6695 27.2565 50.8768 26.1943 50.8768 24.7725C50.8768 23.3506 50.6695 22.2905 50.2548 21.5923C49.8443 20.8898 49.3301 20.5386 48.7123 20.5386C48.0944 20.5386 47.5782 20.8898 47.1635 21.5923C46.753 22.2905 46.5477 23.3506 46.5477 24.7725C46.5477 26.1943 46.753 27.2565 47.1635 27.959C47.5782 28.6572 48.0944 29.0063 48.7123 29.0063Z" fill="url(#paint2_linear_2_1098)"/>
</g>
<g filter="url(#filter3_d_2_1098)">
<path d="M43.8174 28.6138V29.6992H38.498V19.8477H39.7803V28.6138H43.8174Z" fill="url(#paint3_linear_2_1098)"/>
</g>
<g filter="url(#filter4_d_2_1098)">
<path d="M36.1104 28.6138V29.6992H30.791V19.8477H32.0732V28.6138H36.1104Z" fill="url(#paint4_linear_2_1098)"/>
</g>
<g filter="url(#filter5_d_2_1098)">
<path d="M28.3018 28.6138V29.6992H22.9824V19.8477H28.2002V20.8379H24.2646V24.1831H27.8066V25.167H24.2646V28.6138H28.3018Z" fill="url(#paint5_linear_2_1098)"/>
</g>
<g filter="url(#filter6_d_2_1098)">
<path d="M14.7871 29.6992V19.8477H16.0693V24.0879H19.7129V19.8477H20.9888V29.6992H19.7129V25.0718H16.0693V29.6992H14.7871Z" fill="url(#paint6_linear_2_1098)"/>
</g>
</g>
<g filter="url(#filter7_d_2_1098)">
<path d="M43.8154 45.6138V46.6992H38.4961V36.8477H39.7783V45.6138H43.8154Z" fill="url(#paint7_linear_2_1098)"/>
</g>
<g filter="url(#filter8_d_2_1098)">
<path d="M31.626 42.5161V46.6992H30.3438V36.8477H32.978C33.8371 36.8477 34.4697 36.9365 34.876 37.1143C35.2822 37.2878 35.5954 37.5522 35.8154 37.9077C36.0397 38.2632 36.1519 38.6462 36.1519 39.0566C36.1519 39.4375 36.0778 39.8205 35.9297 40.2056C35.7816 40.5907 35.5763 40.9355 35.314 41.2402C35.0558 41.5407 34.6813 41.8263 34.1904 42.0972L37.0405 46.6992H35.5171L32.9082 42.5161H31.626ZM31.626 41.5259H33.4224C33.8244 41.3058 34.1227 41.0815 34.3174 40.853C34.5163 40.6245 34.6665 40.3812 34.7681 40.123C34.8696 39.8649 34.9204 39.6068 34.9204 39.3486C34.9204 38.8874 34.7511 38.5213 34.4126 38.2505C34.0783 37.9754 33.4689 37.8379 32.5845 37.8379H31.626V41.5259Z" fill="url(#paint8_linear_2_1098)"/>
</g>
<g filter="url(#filter9_d_2_1098)">
<path d="M25.5874 46.9966C24.4702 46.9966 23.6154 46.5269 23.0229 45.5874C22.4347 44.6437 22.1406 43.3721 22.1406 41.7725C22.1406 40.1771 22.4347 38.9097 23.0229 37.9702C23.6154 37.0265 24.4702 36.5547 25.5874 36.5547C26.7088 36.5547 27.5636 37.0265 28.1519 37.9702C28.7401 38.9097 29.0342 40.1771 29.0342 41.7725C29.0342 43.3721 28.7401 44.6437 28.1519 45.5874C27.5636 46.5269 26.7088 46.9966 25.5874 46.9966ZM25.5874 46.0063C26.2052 46.0063 26.7194 45.6572 27.1299 44.959C27.5446 44.2565 27.752 43.1943 27.752 41.7725C27.752 40.3506 27.5446 39.2905 27.1299 38.5923C26.7194 37.8898 26.2052 37.5386 25.5874 37.5386C24.9696 37.5386 24.4533 37.8898 24.0386 38.5923C23.6281 39.2905 23.4229 40.3506 23.4229 41.7725C23.4229 43.1943 23.6281 44.2565 24.0386 44.959C24.4533 45.6572 24.9696 46.0063 25.5874 46.0063Z" fill="url(#paint9_linear_2_1098)"/>
</g>
<g filter="url(#filter10_d_2_1098)">
<path d="M15.3027 46.6992L14.1602 36.8477H15.3281L16.001 42.8462L16.0898 43.8428H16.1216L16.2485 42.8462L17.2832 36.8477H18.4512L19.6318 43.0874L19.7524 44.0396H19.7842L19.8604 43.0811L20.603 36.8477H21.606L20.4126 46.6992H19.2002L17.9307 40.0215L17.7974 39.0186H17.7656L17.645 40.0215L16.5024 46.6992H15.3027Z" fill="url(#paint10_linear_2_1098)"/>
</g>
<path fill-rule="evenodd" clip-rule="evenodd" d="M44.1163 41.9624C44.1163 50.2907 37.3649 57.0421 29.0367 57.0421C20.7084 57.0421 13.957 50.2907 13.957 41.9624C13.957 33.6342 20.7084 26.8828 29.0367 26.8828C37.3649 26.8828 44.1163 33.6342 44.1163 41.9624ZM39.1204 58.1627C36.1947 59.9876 32.7388 61.0421 29.0367 61.0421C18.4993 61.0421 9.95703 52.4998 9.95703 41.9624C9.95703 31.4251 18.4993 22.8828 29.0367 22.8828C39.574 22.8828 48.1163 31.4251 48.1163 41.9624C48.1163 47.35 45.8833 52.216 42.2923 55.6854L59.4237 73.2128L56.5631 76.0088L39.1204 58.1627Z" fill="url(#paint11_linear_2_1098)"/>
</g>
<defs>
<filter id="filter0_f_2_1098" x="10.7871" y="15.5547" width="51.6334" height="37.8906" filterUnits="userSpaceOnUse" color-interpolation-filters="sRGB">
<feFlood flood-opacity="0" result="BackgroundImageFix"/>
<feBlend mode="normal" in="SourceGraphic" in2="BackgroundImageFix" result="shape"/>
<feGaussianBlur stdDeviation="2" result="effect1_foregroundBlur_2_1098"/>
</filter>
<filter id="filter1_d_2_1098" x="41.7988" y="32.8477" width="14.3032" height="17.8516" filterUnits="userSpaceOnUse" color-interpolation-filters="sRGB">
<feFlood flood-opacity="0" result="BackgroundImageFix"/>
<feColorMatrix in="SourceAlpha" type="matrix" values="0 0 0 0 0 0 0 0 0 0 0 0 0 0 0 0 0 0 127 0" result="hardAlpha"/>
<feOffset/>
<feGaussianBlur stdDeviation="2"/>
<feComposite in2="hardAlpha" operator="out"/>
<feColorMatrix type="matrix" values="0 0 0 0 0 0 0 0 0 0 0 0 0 0 0 0 0 0 0.25 0"/>
<feBlend mode="normal" in2="BackgroundImageFix" result="effect1_dropShadow_2_1098"/>
<feBlend mode="normal" in="SourceGraphic" in2="effect1_dropShadow_2_1098" result="shape"/>
</filter>
<filter id="filter2_d_2_1098" x="41.2655" y="15.5547" width="14.8936" height="18.4419" filterUnits="userSpaceOnUse" color-interpolation-filters="sRGB">
<feFlood flood-opacity="0" result="BackgroundImageFix"/>
<feColorMatrix in="SourceAlpha" type="matrix" values="0 0 0 0 0 0 0 0 0 0 0 0 0 0 0 0 0 0 127 0" result="hardAlpha"/>
<feOffset/>
<feGaussianBlur stdDeviation="2"/>
<feComposite in2="hardAlpha" operator="out"/>
<feColorMatrix type="matrix" values="0 0 0 0 0 0 0 0 0 0 0 0 0 0 0 0 0 0 0.25 0"/>
<feBlend mode="normal" in2="BackgroundImageFix" result="effect1_dropShadow_2_1098"/>
<feBlend mode="normal" in="SourceGraphic" in2="effect1_dropShadow_2_1098" result="shape"/>
</filter>
<filter id="filter3_d_2_1098" x="34.498" y="15.8477" width="13.3193" height="17.8516" filterUnits="userSpaceOnUse" color-interpolation-filters="sRGB">
<feFlood flood-opacity="0" result="BackgroundImageFix"/>
<feColorMatrix in="SourceAlpha" type="matrix" values="0 0 0 0 0 0 0 0 0 0 0 0 0 0 0 0 0 0 127 0" result="hardAlpha"/>
<feOffset/>
<feGaussianBlur stdDeviation="2"/>
<feComposite in2="hardAlpha" operator="out"/>
<feColorMatrix type="matrix" values="0 0 0 0 0 0 0 0 0 0 0 0 0 0 0 0 0 0 0.25 0"/>
<feBlend mode="normal" in2="BackgroundImageFix" result="effect1_dropShadow_2_1098"/>
<feBlend mode="normal" in="SourceGraphic" in2="effect1_dropShadow_2_1098" result="shape"/>
</filter>
<filter id="filter4_d_2_1098" x="26.791" y="15.8477" width="13.3193" height="17.8516" filterUnits="userSpaceOnUse" color-interpolation-filters="sRGB">
<feFlood flood-opacity="0" result="BackgroundImageFix"/>
<feColorMatrix in="SourceAlpha" type="matrix" values="0 0 0 0 0 0 0 0 0 0 0 0 0 0 0 0 0 0 127 0" result="hardAlpha"/>
<feOffset/>
<feGaussianBlur stdDeviation="2"/>
<feComposite in2="hardAlpha" operator="out"/>
<feColorMatrix type="matrix" values="0 0 0 0 0 0 0 0 0 0 0 0 0 0 0 0 0 0 0.25 0"/>
<feBlend mode="normal" in2="BackgroundImageFix" result="effect1_dropShadow_2_1098"/>
<feBlend mode="normal" in="SourceGraphic" in2="effect1_dropShadow_2_1098" result="shape"/>
</filter>
<filter id="filter5_d_2_1098" x="18.9824" y="15.8477" width="13.3193" height="17.8516" filterUnits="userSpaceOnUse" color-interpolation-filters="sRGB">
<feFlood flood-opacity="0" result="BackgroundImageFix"/>
<feColorMatrix in="SourceAlpha" type="matrix" values="0 0 0 0 0 0 0 0 0 0 0 0 0 0 0 0 0 0 127 0" result="hardAlpha"/>
<feOffset/>
<feGaussianBlur stdDeviation="2"/>
<feComposite in2="hardAlpha" operator="out"/>
<feColorMatrix type="matrix" values="0 0 0 0 0 0 0 0 0 0 0 0 0 0 0 0 0 0 0.25 0"/>
<feBlend mode="normal" in2="BackgroundImageFix" result="effect1_dropShadow_2_1098"/>
<feBlend mode="normal" in="SourceGraphic" in2="effect1_dropShadow_2_1098" result="shape"/>
</filter>
<filter id="filter6_d_2_1098" x="10.7871" y="15.8477" width="14.2017" height="17.8516" filterUnits="userSpaceOnUse" color-interpolation-filters="sRGB">
<feFlood flood-opacity="0" result="BackgroundImageFix"/>
<feColorMatrix in="SourceAlpha" type="matrix" values="0 0 0 0 0 0 0 0 0 0 0 0 0 0 0 0 0 0 127 0" result="hardAlpha"/>
<feOffset/>
<feGaussianBlur stdDeviation="2"/>
<feComposite in2="hardAlpha" operator="out"/>
<feColorMatrix type="matrix" values="0 0 0 0 0 0 0 0 0 0 0 0 0 0 0 0 0 0 0.25 0"/>
<feBlend mode="normal" in2="BackgroundImageFix" result="effect1_dropShadow_2_1098"/>
<feBlend mode="normal" in="SourceGraphic" in2="effect1_dropShadow_2_1098" result="shape"/>
</filter>
<filter id="filter7_d_2_1098" x="34.4961" y="32.8477" width="13.3193" height="17.8516" filterUnits="userSpaceOnUse" color-interpolation-filters="sRGB">
<feFlood flood-opacity="0" result="BackgroundImageFix"/>
<feColorMatrix in="SourceAlpha" type="matrix" values="0 0 0 0 0 0 0 0 0 0 0 0 0 0 0 0 0 0 127 0" result="hardAlpha"/>
<feOffset/>
<feGaussianBlur stdDeviation="2"/>
<feComposite in2="hardAlpha" operator="out"/>
<feColorMatrix type="matrix" values="0 0 0 0 0 0 0 0 0 0 0 0 0 0 0 0 0 0 0.25 0"/>
<feBlend mode="normal" in2="BackgroundImageFix" result="effect1_dropShadow_2_1098"/>
<feBlend mode="normal" in="SourceGraphic" in2="effect1_dropShadow_2_1098" result="shape"/>
</filter>
<filter id="filter8_d_2_1098" x="26.3438" y="32.8477" width="14.6968" height="17.8516" filterUnits="userSpaceOnUse" color-interpolation-filters="sRGB">
<feFlood flood-opacity="0" result="BackgroundImageFix"/>
<feColorMatrix in="SourceAlpha" type="matrix" values="0 0 0 0 0 0 0 0 0 0 0 0 0 0 0 0 0 0 127 0" result="hardAlpha"/>
<feOffset/>
<feGaussianBlur stdDeviation="2"/>
<feComposite in2="hardAlpha" operator="out"/>
<feColorMatrix type="matrix" values="0 0 0 0 0 0 0 0 0 0 0 0 0 0 0 0 0 0 0.25 0"/>
<feBlend mode="normal" in2="BackgroundImageFix" result="effect1_dropShadow_2_1098"/>
<feBlend mode="normal" in="SourceGraphic" in2="effect1_dropShadow_2_1098" result="shape"/>
</filter>
<filter id="filter9_d_2_1098" x="18.1406" y="32.5547" width="14.8936" height="18.4419" filterUnits="userSpaceOnUse" color-interpolation-filters="sRGB">
<feFlood flood-opacity="0" result="BackgroundImageFix"/>
<feColorMatrix in="SourceAlpha" type="matrix" values="0 0 0 0 0 0 0 0 0 0 0 0 0 0 0 0 0 0 127 0" result="hardAlpha"/>
<feOffset/>
<feGaussianBlur stdDeviation="2"/>
<feComposite in2="hardAlpha" operator="out"/>
<feColorMatrix type="matrix" values="0 0 0 0 0 0 0 0 0 0 0 0 0 0 0 0 0 0 0.25 0"/>
<feBlend mode="normal" in2="BackgroundImageFix" result="effect1_dropShadow_2_1098"/>
<feBlend mode="normal" in="SourceGraphic" in2="effect1_dropShadow_2_1098" result="shape"/>
</filter>
<filter id="filter10_d_2_1098" x="10.1602" y="32.8477" width="15.4458" height="17.8516" filterUnits="userSpaceOnUse" color-interpolation-filters="sRGB">
<feFlood flood-opacity="0" result="BackgroundImageFix"/>
<feColorMatrix in="SourceAlpha" type="matrix" values="0 0 0 0 0 0 0 0 0 0 0 0 0 0 0 0 0 0 127 0" result="hardAlpha"/>
<feOffset/>
<feGaussianBlur stdDeviation="2"/>
<feComposite in2="hardAlpha" operator="out"/>
<feColorMatrix type="matrix" values="0 0 0 0 0 0 0 0 0 0 0 0 0 0 0 0 0 0 0.25 0"/>
<feBlend mode="normal" in2="BackgroundImageFix" result="effect1_dropShadow_2_1098"/>
<feBlend mode="normal" in="SourceGraphic" in2="effect1_dropShadow_2_1098" result="shape"/>
</filter>
<radialGradient id="paint0_radial_2_1098" cx="0" cy="0" r="1" gradientUnits="userSpaceOnUse" gradientTransform="translate(35.4803 -14.9726) rotate(94.2626) scale(85.8309)">
<stop stop-color="#1A063B"/>
<stop offset="1" stop-color="#1D1F23"/>
</radialGradient>
<linearGradient id="paint1_linear_2_1098" x1="53.6104" y1="15.0621" x2="52.3778" y2="50.8399" gradientUnits="userSpaceOnUse">
<stop stop-color="white"/>
<stop offset="1" stop-color="#FF00A8"/>
</linearGradient>
<linearGradient id="paint2_linear_2_1098" x1="45.4564" y1="14.4823" x2="44.4502" y2="52.4224" gradientUnits="userSpaceOnUse">
<stop stop-color="#FF0000"/>
<stop offset="1.0001" stop-color="white"/>
</linearGradient>
<linearGradient id="paint3_linear_2_1098" x1="38.6453" y1="15.0621" x2="37.4851" y2="50.8447" gradientUnits="userSpaceOnUse">
<stop stop-color="#FF0000"/>
<stop offset="1.0001" stop-color="white"/>
</linearGradient>
<linearGradient id="paint4_linear_2_1098" x1="30.9383" y1="15.0621" x2="29.778" y2="50.8447" gradientUnits="userSpaceOnUse">
<stop stop-color="#FF0000"/>
<stop offset="1.0001" stop-color="white"/>
</linearGradient>
<linearGradient id="paint5_linear_2_1098" x1="23.1297" y1="15.0621" x2="21.9694" y2="50.8447" gradientUnits="userSpaceOnUse">
<stop stop-color="#FF0000"/>
<stop offset="1.0001" stop-color="white"/>
</linearGradient>
<linearGradient id="paint6_linear_2_1098" x1="14.9588" y1="15.0621" x2="13.9634" y2="50.8546" gradientUnits="userSpaceOnUse">
<stop stop-color="#FF0000"/>
<stop offset="1.0001" stop-color="white"/>
</linearGradient>
<linearGradient id="paint7_linear_2_1098" x1="45.0883" y1="15.0621" x2="43.6284" y2="50.8227" gradientUnits="userSpaceOnUse">
<stop stop-color="white"/>
<stop offset="1" stop-color="#FF00A8"/>
</linearGradient>
<linearGradient id="paint8_linear_2_1098" x1="38.643" y1="15.0621" x2="37.4827" y2="50.8447" gradientUnits="userSpaceOnUse">
<stop stop-color="white"/>
<stop offset="1" stop-color="#FF00A8"/>
</linearGradient>
<linearGradient id="paint9_linear_2_1098" x1="30.6837" y1="13.4636" x2="29.4175" y2="51.3881" gradientUnits="userSpaceOnUse">
<stop stop-color="white"/>
<stop offset="1" stop-color="#FF00A8"/>
</linearGradient>
<linearGradient id="paint10_linear_2_1098" x1="23.3877" y1="15.0621" x2="22.3439" y2="50.8519" gradientUnits="userSpaceOnUse">
<stop stop-color="white"/>
<stop offset="1" stop-color="#FF00A8"/>
</linearGradient>
<linearGradient id="paint11_linear_2_1098" x1="9.95703" y1="49.4458" x2="59.4237" y2="49.4458" gradientUnits="userSpaceOnUse">
<stop stop-color="#A580FF"/>
<stop offset="1" stop-color="white"/>
</linearGradient>
<clipPath id="clip0_2_1098">
<rect x="0.128906" width="67" height="67" rx="14" fill="white"/>
</clipPath>
</defs>
</svg>
