<svg width="18" height="18" viewBox="0 0 18 18" fill="none" xmlns="http://www.w3.org/2000/svg">
<path d="M9 17.6812C7.81022 17.6812 6.69238 17.4543 5.64648 17.0005C4.60059 16.5522 3.67643 15.9297 2.87402 15.1328C2.07715 14.3359 1.45182 13.4146 0.998047 12.3687C0.549805 11.3172 0.325684 10.1966 0.325684 9.00684C0.325684 7.82259 0.549805 6.70752 0.998047 5.66162C1.45182 4.61019 2.07715 3.68604 2.87402 2.88916C3.6709 2.09229 4.59229 1.46696 5.63818 1.01318C6.68962 0.559408 7.80745 0.33252 8.9917 0.33252C10.1815 0.33252 11.2993 0.559408 12.3452 1.01318C13.3966 1.46696 14.3208 2.09229 15.1177 2.88916C15.9201 3.68604 16.5454 4.61019 16.9937 5.66162C17.4474 6.70752 17.6743 7.82259 17.6743 9.00684C17.6743 10.1966 17.4474 11.3172 16.9937 12.3687C16.5454 13.4146 15.9201 14.3359 15.1177 15.1328C14.3208 15.9297 13.3994 16.5522 12.3535 17.0005C11.3076 17.4543 10.1898 17.6812 9 17.6812ZM8.07861 13.1406C8.25016 13.1406 8.40511 13.1019 8.54346 13.0244C8.68734 12.9414 8.81185 12.8224 8.91699 12.6675L12.7852 6.69922C12.8516 6.59961 12.9041 6.49723 12.9429 6.39209C12.9871 6.28695 13.0093 6.1818 13.0093 6.07666C13.0093 5.84424 12.9207 5.65332 12.7437 5.50391C12.5666 5.35449 12.3646 5.27979 12.1377 5.27979C11.8389 5.27979 11.5898 5.44027 11.3906 5.76123L8.05371 11.0737L6.53467 9.17285C6.42399 9.04004 6.31055 8.94596 6.19434 8.89062C6.08366 8.82975 5.95915 8.79932 5.8208 8.79932C5.58285 8.79932 5.38086 8.88232 5.21484 9.04834C5.05436 9.20882 4.97412 9.40804 4.97412 9.646C4.97412 9.76221 4.99349 9.87288 5.03223 9.97803C5.0765 10.0776 5.14014 10.18 5.22314 10.2852L7.21533 12.6841C7.33708 12.839 7.46712 12.9552 7.60547 13.0327C7.74935 13.1047 7.90706 13.1406 8.07861 13.1406Z" fill="#00A3FF"/>
</svg>
