<svg width="12" height="13" viewBox="0 0 12 13" fill="none" xmlns="http://www.w3.org/2000/svg">
<path fill-rule="evenodd" clip-rule="evenodd" d="M6 12.5C9.31371 12.5 12 9.81371 12 6.5C12 3.18629 9.31371 0.5 6 0.5C2.68629 0.5 0 3.18629 0 6.5C0 9.81371 2.68629 12.5 6 12.5ZM3.87236 7.65499C3.9406 8.59904 4.74816 9.22461 6.01827 9.22461C7.33008 9.22461 8.1528 8.55733 8.1528 7.49196V7.48817C8.1528 6.66165 7.6713 6.1991 6.51873 5.95646L5.93107 5.83134C5.24862 5.68727 4.97185 5.44462 4.97185 5.0579V5.05411C4.97185 4.58778 5.40407 4.30342 6.01068 4.30342C6.63626 4.29963 7.04193 4.60294 7.11018 5.02757L7.11776 5.07307H8.05423L8.05044 5.02378C7.98219 4.14419 7.22771 3.4807 6.01448 3.4807C4.83157 3.4807 3.98989 4.1404 3.98989 5.11857V5.12236C3.98989 5.9375 4.47518 6.46071 5.59364 6.69577L6.1813 6.8171C6.88649 6.96875 7.17084 7.20761 7.17084 7.60191V7.6057C7.17084 8.07583 6.70829 8.40188 6.0486 8.40188C5.35478 8.40188 4.86569 8.09858 4.8202 7.63982L4.81641 7.60191H3.86857L3.87236 7.65499Z" fill="#F89938"/>
</svg>
