<svg width="49" height="64" viewBox="0 0 49 64" fill="none" xmlns="http://www.w3.org/2000/svg">
<g clip-path="url(#clip0_1_1700)">
<path fill-rule="evenodd" clip-rule="evenodd" d="M42.9181 20.4641H38.7239V14.0691C38.7239 6.31142 32.3557 0 24.5281 0C16.7005 0 10.3321 6.31142 10.3321 14.0691V20.4641H6.1378C2.75771 20.4641 0.0078125 23.1896 0.0078125 26.5393V57.8749C0.0078125 61.2248 2.75786 63.9501 6.1378 63.9501H42.9181C46.2981 63.9501 49.0482 61.2246 49.0482 57.8749V26.5393C49.0482 23.1896 46.298 20.4641 42.9181 20.4641ZM26.1488 36.0164C28.9249 36.7309 30.9807 39.2356 30.9807 42.2072C30.9807 45.1787 28.9249 47.6835 26.1488 48.3979V45.6927C27.4763 45.0836 28.3995 43.7508 28.3995 42.2082C28.3995 40.6656 27.4763 39.3328 26.1488 38.7238V36.0164ZM22.8595 36.0289V38.7459C21.5575 39.3646 20.6562 40.684 20.6562 42.2082C20.6562 43.7324 21.5575 45.0519 22.8595 45.6706V48.3855C20.1076 47.6549 18.0752 45.1618 18.0752 42.2072C18.0752 39.2526 20.1076 36.7595 22.8595 36.0289ZM12.9131 14.0691C12.9131 7.72182 18.1234 2.55805 24.5279 2.55805C30.9324 2.55805 36.1427 7.72182 36.1427 14.0691V20.4641H12.9131V14.0691Z" fill="url(#paint0_linear_1_1700)"/>
</g>
<defs>
<linearGradient id="paint0_linear_1_1700" x1="0.0078125" y1="31.975" x2="49.0482" y2="31.975" gradientUnits="userSpaceOnUse">
<stop stop-color="#9FA7E2"/>
<stop offset="1" stop-color="#D6D6D6"/>
</linearGradient>
<clipPath id="clip0_1_1700">
<rect width="49" height="64" fill="white"/>
</clipPath>
</defs>
</svg>
